<svg width="1462" height="409" viewBox="0 0 1462 409" fill="#fff" xmlns="http://www.w3.org/2000/svg">
<path d="M410.601 87.9661L335.268 161.123C334.218 162.144 332.794 162.718 331.308 162.72H267.114C262.643 162.72 258.355 164.444 255.193 167.515C252.031 170.585 250.255 174.749 250.255 179.092V240.037C250.255 241.003 249.859 241.93 249.156 242.613C248.452 243.297 247.498 243.68 246.504 243.68H170.638C169.643 243.68 168.688 243.297 167.985 242.613C167.281 241.93 166.886 241.003 166.886 240.037V164.969C166.885 164.252 167.03 163.543 167.312 162.881C167.594 162.219 168.008 161.618 168.53 161.112L248.611 83.3446C249.663 82.3278 251.087 81.7576 252.571 81.7591H407.949C408.689 81.7617 409.411 81.9765 410.025 82.3763C410.639 82.7761 411.118 83.3431 411.401 84.0063C411.684 84.6694 411.759 85.399 411.618 86.1036C411.475 86.8081 411.122 87.456 410.601 87.9661Z" fill="#fff"/>
<path d="M172.967 320.883L248.301 247.726C249.351 246.705 250.775 246.131 252.26 246.129H316.443C318.658 246.131 320.852 245.709 322.898 244.887C324.946 244.064 326.805 242.859 328.372 241.338C329.939 239.818 331.182 238.013 332.029 236.025C332.877 234.038 333.314 231.909 333.314 229.757V168.813C333.314 167.846 333.709 166.919 334.413 166.236C335.117 165.553 336.071 165.169 337.065 165.169H412.932C413.926 165.169 414.88 165.553 415.584 166.236C416.287 166.919 416.683 167.846 416.683 168.813V243.881C416.683 244.597 416.539 245.306 416.256 245.969C415.974 246.63 415.561 247.232 415.039 247.738L334.958 325.505C333.906 326.521 332.482 327.092 330.997 327.09H175.619C174.88 327.088 174.158 326.873 173.544 326.473C172.93 326.073 172.451 325.507 172.168 324.843C171.884 324.18 171.809 323.451 171.951 322.746C172.094 322.041 172.447 321.394 172.967 320.883Z" fill="#fff"/>
<path fill-rule="evenodd" clip-rule="evenodd" d="M835.294 327.093C836.348 327.093 837.317 326.563 838.017 325.789C838.606 325.131 838.985 324.312 838.985 323.433V217.899C838.985 217.02 838.606 216.201 838.017 215.543C837.317 214.769 836.348 214.239 835.294 214.239H832.686C831.637 214.239 830.663 214.769 829.968 215.543C829.374 216.201 828.994 217.02 828.994 217.899V323.433C828.994 324.312 829.374 325.131 829.968 325.789C830.663 326.563 831.637 327.093 832.686 327.093H835.294ZM467.151 327.093C448.446 327.093 435.215 317.78 434.359 302.712C434.301 301.699 434.668 300.706 435.366 299.958C436.147 299.12 437.268 298.686 438.425 298.686H441.506C442.643 298.686 443.732 299.137 444.525 299.937C445.289 300.71 445.693 301.754 445.796 302.826C446.845 313.735 458.198 315.67 467.174 315.67C475.638 315.67 487.985 315.009 487.985 302.602C487.985 295.665 474.459 291.806 462.772 288.471C456.891 286.792 451.476 285.247 448.484 283.509C439.053 278.284 437.105 274.24 437.105 267.185C437.105 252.333 450.11 243.679 466.367 243.679C482.028 243.679 494.457 251.699 495.348 264.975C495.415 265.973 495.096 266.965 494.438 267.729C493.623 268.674 492.389 269.132 491.128 269.132H488.338C487.115 269.132 485.948 268.626 485.123 267.738C484.39 266.95 484.029 265.913 483.84 264.863C482.754 258.819 475.672 255.091 466.263 255.091C455.368 255.091 448.381 259.504 448.381 267.174C448.381 273.74 460.037 276.445 468.328 278.369V278.369L468.334 278.371C468.907 278.504 469.464 278.633 469.999 278.759C482.843 281.702 499.262 287.089 499.262 300.771C499.342 317.941 485.368 327.093 467.151 327.093ZM511.506 243.679H508.24C507.166 243.679 506.137 244.108 505.391 244.867C504.678 245.591 504.28 246.559 504.279 247.566L504.257 284.645C504.257 309.136 515.672 327.093 539.116 327.093H539.48C550.817 327.093 562.299 317.745 562.455 306.267C562.457 306.137 562.564 306.031 562.695 306.031C562.828 306.031 562.935 306.136 562.935 306.266V323.205C562.935 324.212 563.333 325.181 564.046 325.906C564.792 326.665 565.82 327.093 566.894 327.093H570.134C571.194 327.093 572.198 326.646 572.954 325.917C573.727 325.17 574.201 324.165 574.201 323.1V247.672C574.201 246.607 573.727 245.603 572.953 244.855C572.197 244.126 571.194 243.679 570.134 243.679H566.894C565.82 243.679 564.792 244.107 564.046 244.866C563.333 245.591 562.935 246.559 562.935 247.567V284.679C562.935 299.207 556.191 315.693 541.577 315.693C523.418 315.693 515.547 305.742 515.547 284.679V247.697C515.547 246.615 515.1 245.62 514.319 244.855C513.577 244.13 512.553 243.679 511.506 243.679ZM591.78 327.093C592.851 327.093 593.878 326.669 594.628 325.917C595.357 325.186 595.765 324.203 595.765 323.179V255.171H630.137C631.206 255.171 632.231 254.753 632.985 254.008C633.733 253.269 634.152 252.27 634.152 251.228V247.627C634.152 246.595 633.662 245.635 632.921 244.904C632.176 244.168 631.192 243.679 630.135 243.679H588.333C587.276 243.679 586.275 244.114 585.511 244.83C584.696 245.593 584.192 246.633 584.192 247.739V323.033C584.192 324.139 584.695 325.179 585.511 325.942C586.275 326.658 587.276 327.093 588.333 327.093H591.78ZM712.803 244.628C713.587 245.464 713.812 246.669 713.382 247.723L682.367 323.809C682.108 324.446 681.713 325.023 681.214 325.502L681.004 325.703C680.069 326.594 678.82 327.093 677.516 327.093H675.703C674.389 327.093 673.13 326.585 672.196 325.678L672.006 325.495C671.516 325.021 671.132 324.453 670.877 323.825L639.881 247.793C639.435 246.699 639.682 245.45 640.514 244.601C641.09 244.012 641.885 243.679 642.716 243.679H647.276C648.635 243.679 649.934 244.223 650.878 245.187L650.998 245.307C651.442 245.762 651.792 246.298 652.033 246.884L676.602 307.212L701.142 246.948C701.402 246.32 701.787 245.751 702.276 245.277L702.462 245.093C703.401 244.187 704.659 243.679 705.973 243.679H710.594C711.434 243.679 712.233 244.023 712.803 244.628ZM886.807 327.093C868.102 327.093 854.873 317.779 854.018 302.712C853.959 301.698 854.328 300.706 855.022 299.958C855.807 299.12 856.926 298.686 858.085 298.686H861.168C862.302 298.686 863.391 299.135 864.185 299.934C864.955 300.708 865.364 301.757 865.464 302.835C866.518 313.736 877.859 315.67 886.842 315.67C895.29 315.67 907.59 315.009 907.59 302.602C907.59 295.665 894.066 291.806 882.381 288.471C876.501 286.792 871.084 285.247 868.097 283.509C858.665 278.284 856.716 274.24 856.716 267.185C856.716 252.333 869.721 243.679 885.978 243.679C901.634 243.679 914.105 251.7 914.999 264.977C915.064 265.974 914.749 266.966 914.09 267.73C913.275 268.677 912.036 269.132 910.778 269.132H908C906.776 269.132 905.611 268.626 904.782 267.738C904.053 266.95 903.693 265.914 903.504 264.863C902.42 258.819 895.335 255.091 885.928 255.091C875.036 255.091 868.047 259.504 868.047 267.174C868.047 273.74 879.702 276.445 887.991 278.369C888.565 278.503 889.125 278.633 889.664 278.759C902.504 281.702 918.921 287.089 918.921 300.771C918.991 317.941 905.007 327.093 886.807 327.093ZM997.642 298.189C996.943 297.297 995.843 296.717 994.694 296.712L990.438 296.692C989.564 296.688 988.724 296.995 988 297.479C987.33 297.929 986.77 298.527 986.436 299.252C982.779 307.17 976.894 315.805 962.371 315.805C942.546 315.805 935.458 299.901 935.458 285.282C935.458 271.113 942.232 254.921 962.371 254.921C975.7 254.921 982.024 262.619 985.737 270.147C986.106 270.898 986.701 271.515 987.426 271.95C988.09 272.352 988.849 272.594 989.634 272.594H994.329C995.514 272.594 996.658 272.111 997.352 271.173C998.027 270.264 998.172 269.085 997.807 268.019C992.591 252.801 979.242 243.679 962.371 243.679C938.44 243.679 923.916 261.386 923.916 285.317C923.916 309.42 938.44 327.093 962.371 327.093C979.697 327.093 993.346 317.431 998.327 301.469C998.686 300.323 998.392 299.137 997.642 298.189ZM1019.27 325.921C1018.52 326.671 1017.5 327.093 1016.43 327.093H1012.98C1011.92 327.093 1010.92 326.656 1010.16 325.939C1009.35 325.179 1008.85 324.143 1008.85 323.043V247.729C1008.85 246.63 1009.35 245.594 1010.16 244.833C1010.92 244.116 1011.92 243.679 1012.98 243.679H1054.79C1055.85 243.679 1056.83 244.169 1057.58 244.905C1058.32 245.636 1058.81 246.595 1058.81 247.627V251.228C1058.81 252.27 1058.39 253.269 1057.64 254.008C1056.89 254.753 1055.86 255.171 1054.79 255.171H1020.42V323.169C1020.42 324.199 1020.01 325.187 1019.27 325.921ZM1289.6 327.093H1286.35C1285.3 327.093 1284.27 326.634 1283.53 325.907C1282.74 325.148 1282.3 324.161 1282.3 323.083V286.116C1282.3 265.054 1274.43 255.091 1256.28 255.091C1241.67 255.091 1234.93 271.588 1234.93 286.116V323.206C1234.93 324.213 1234.53 325.181 1233.82 325.905C1233.08 326.664 1232.05 327.093 1230.97 327.093H1227.74C1226.68 327.093 1225.68 326.646 1224.92 325.916C1224.15 325.17 1223.67 324.166 1223.67 323.101V247.671C1223.67 246.606 1224.15 245.602 1224.92 244.856C1225.68 244.126 1226.68 243.679 1227.74 243.679H1230.97C1232.05 243.679 1233.08 244.108 1233.82 244.867C1234.53 245.591 1234.93 246.559 1234.93 247.566V264.501C1234.93 264.653 1235.06 264.776 1235.21 264.776C1235.37 264.776 1235.5 264.652 1235.5 264.5C1235.67 253.041 1247.14 243.714 1258.46 243.714H1258.77C1282.21 243.714 1293.62 261.671 1293.62 286.162L1293.57 323.208C1293.57 324.214 1293.17 325.18 1292.45 325.904C1291.71 326.664 1290.67 327.093 1289.6 327.093ZM813.966 219.126C813.966 216.427 811.738 214.239 808.99 214.239C806.243 214.239 804.014 216.427 804.014 219.126V220.148C804.014 222.848 806.243 225.036 808.99 225.036C811.738 225.036 813.966 222.848 813.966 220.148V219.126ZM804.993 245.979C804.404 246.638 804.029 247.455 804.029 248.332V323.478C804.029 324.354 804.354 325.201 804.939 325.86C805.637 326.644 806.647 327.093 807.706 327.093H810.309C811.363 327.093 812.343 326.556 813.037 325.779C813.626 325.121 814.006 324.304 814.006 323.427V248.332C814.006 247.455 813.631 246.638 813.041 245.979C812.343 245.202 811.363 244.668 810.309 244.668H807.726C806.666 244.668 805.693 245.201 804.993 245.979ZM756.682 327.093C773.639 327.093 786.988 317.414 791.849 301.426C792.193 300.305 791.904 299.144 791.185 298.211C790.485 297.306 789.386 296.717 788.232 296.712L783.71 296.691C783.126 296.688 782.556 296.896 782.082 297.238C781.223 297.864 780.488 298.657 780.049 299.618C776.456 307.433 770.661 315.805 756.682 315.805C739.271 315.805 731.903 302.973 730.588 289.766C730.538 289.306 730.504 288.844 730.469 288.383H782.142H792.508C793.302 288.383 793.957 287.778 793.987 287.001C794.187 281.616 793.537 276.53 791.854 269.703C787.173 253.475 773.773 243.679 756.682 243.679C733.282 243.679 719.083 261.386 719.083 285.317C719.083 309.42 733.282 327.093 756.682 327.093ZM780.068 271.31C776.521 263.434 770.386 254.921 756.682 254.921C740.785 254.921 733.401 265.474 731.148 276.995C730.938 278.066 730.773 279.143 730.653 280.222H781.917C781.577 277.546 780.978 274.67 780.068 271.31ZM1131.58 301.426C1126.72 317.414 1113.36 327.093 1096.41 327.093C1073.01 327.093 1058.81 309.42 1058.81 285.317C1058.81 261.386 1073.01 243.679 1096.41 243.679C1113.5 243.679 1126.89 253.475 1131.58 269.703C1133.26 276.53 1133.91 281.616 1133.71 287.001C1133.69 287.778 1133.03 288.383 1132.23 288.383H1121.86H1070.19C1070.23 288.844 1070.27 289.306 1070.31 289.766C1071.63 302.973 1079 315.805 1096.41 315.805C1110.38 315.805 1116.18 307.433 1119.77 299.618C1120.21 298.657 1120.95 297.864 1121.8 297.238C1122.28 296.896 1122.85 296.688 1123.43 296.691L1127.95 296.712C1129.11 296.717 1130.21 297.306 1130.91 298.211C1131.63 299.144 1131.91 300.305 1131.58 301.426ZM1096.41 254.921C1110.12 254.921 1116.25 263.434 1119.79 271.31C1120.7 274.67 1121.3 277.546 1121.64 280.222H1070.38C1070.5 279.143 1070.67 278.066 1070.87 276.995C1073.12 265.474 1080.51 254.921 1096.41 254.921ZM1176.34 327.093C1193.3 327.093 1206.65 317.414 1211.51 301.426C1211.85 300.305 1211.56 299.144 1210.85 298.211C1210.15 297.306 1209.04 296.717 1207.89 296.712L1203.37 296.691C1202.78 296.688 1202.21 296.896 1201.74 297.238C1200.88 297.864 1200.15 298.657 1199.7 299.618C1196.12 307.433 1190.32 315.805 1176.34 315.805C1158.93 315.805 1151.56 302.973 1150.25 289.766C1150.2 289.306 1150.16 288.844 1150.13 288.383H1201.81H1212.17C1212.96 288.383 1213.62 287.778 1213.64 287.001C1213.85 281.616 1213.2 276.53 1211.52 269.703C1206.83 253.475 1193.43 243.679 1176.34 243.679C1152.94 243.679 1138.74 261.386 1138.74 285.317C1138.74 309.42 1152.94 327.093 1176.34 327.093ZM1199.73 271.31C1196.18 263.434 1190.05 254.921 1176.34 254.921C1160.44 254.921 1153.06 265.474 1150.81 276.995C1150.6 278.066 1150.44 279.143 1150.31 280.222H1201.57C1201.24 277.546 1200.64 274.67 1199.73 271.31Z" fill="#fff"/>
</svg>
