<?xml version="1.0" standalone="no"?>
<!DOCTYPE svg PUBLIC "-//W3C//DTD SVG 20010904//EN"
 "http://www.w3.org/TR/2001/REC-SVG-20010904/DTD/svg10.dtd">
<svg version="1.0" xmlns="http://www.w3.org/2000/svg"
 width="1739.000000pt" height="462.000000pt" viewBox="0 0 1739.000000 462.000000"
 preserveAspectRatio="xMidYMid meet">

<g transform="translate(0.000000,462.000000) scale(0.100000,-0.100000)"
fill="#ffffff" stroke="none">
<path d="M1877 4023 c-131 -123 -1077 -1045 -1101 -1074 l-26 -31 0 -544 c0
-531 0 -544 20 -564 20 -20 33 -20 568 -20 479 0 550 2 570 16 l22 15 0 457
c0 291 4 471 11 495 13 47 69 111 123 140 40 22 51 22 547 27 l506 5 149 144
c923 894 944 916 944 943 0 17 -7 31 -19 38 -13 7 -386 10 -1136 10 l-1116 0
-62 -57z"/>
<path d="M3127 2882 c-15 -17 -17 -64 -17 -466 0 -293 -4 -462 -11 -491 -14
-54 -67 -118 -123 -148 -40 -22 -48 -22 -547 -27 l-506 -5 -104 -99 c-371
-355 -989 -961 -990 -970 -3 -24 3 -42 19 -54 12 -9 255 -12 1135 -12 l1119 0
96 92 c54 51 319 308 590 571 l492 479 0 564 c0 547 -1 564 -19 574 -13 6
-209 10 -569 10 -519 0 -550 -1 -565 -18z"/>
<path d="M9790 2180 c-43 -43 -11 -120 48 -120 46 0 67 22 67 70 0 30 -6 46
-20 56 -27 20 -72 17 -95 -6z"/>
<path d="M10142 2188 c-9 -9 -12 -197 -12 -785 0 -753 0 -773 19 -783 30 -16
76 -12 94 8 16 17 17 86 17 783 0 582 -3 768 -12 777 -7 7 -30 12 -53 12 -23
0 -46 -5 -53 -12z"/>
<path d="M4890 1779 c-69 -12 -164 -56 -214 -99 -53 -47 -88 -121 -94 -201
-12 -165 61 -230 353 -319 328 -99 401 -156 351 -274 -32 -77 -93 -106 -233
-114 -222 -11 -333 46 -357 180 -4 22 -15 42 -26 48 -28 15 -83 12 -109 -6
-21 -15 -23 -22 -17 -67 12 -102 87 -206 183 -255 80 -41 153 -56 273 -56 137
0 214 19 300 75 165 107 204 345 74 459 -69 60 -163 99 -371 150 -156 39 -230
72 -256 117 -42 73 18 167 128 198 87 26 206 17 274 -21 50 -27 91 -75 91
-108 0 -52 99 -77 141 -35 17 17 19 28 14 62 -23 137 -143 238 -316 266 -74
12 -112 12 -189 0z"/>
<path d="M5551 1774 l-23 -16 5 -357 c3 -300 7 -365 21 -416 62 -211 188 -333
379 -365 89 -15 166 -7 231 26 92 46 150 114 177 208 l18 61 0 -137 c1 -130 2
-138 23 -152 31 -22 91 -20 111 2 15 17 17 71 17 575 l0 556 -22 15 c-28 20
-77 20 -105 1 -21 -15 -21 -21 -25 -353 -5 -358 -8 -383 -60 -485 -28 -56 -97
-127 -143 -148 -51 -23 -162 -25 -235 -3 -137 41 -207 137 -230 318 -5 39 -10
202 -10 363 0 290 0 292 -22 307 -29 21 -77 20 -107 0z"/>
<path d="M6680 1770 c-20 -20 -20 -33 -20 -570 0 -537 0 -550 20 -570 13 -13
33 -20 60 -20 27 0 47 7 60 20 19 19 20 33 20 510 l0 490 254 0 c291 0 286 -2
286 80 0 81 5 80 -352 80 -295 0 -309 -1 -328 -20z"/>
<path d="M7462 1778 c-7 -7 -12 -20 -12 -31 0 -34 440 -1101 461 -1120 12 -9
36 -17 54 -17 18 0 42 8 54 17 14 12 100 211 240 554 120 295 222 545 225 557
12 36 -20 55 -81 50 -30 -3 -60 -11 -68 -19 -8 -8 -91 -203 -185 -433 -94
-230 -174 -425 -179 -433 -5 -10 -67 131 -182 414 -99 245 -183 438 -196 451
-17 17 -34 22 -71 22 -26 0 -53 -5 -60 -12z"/>
<path d="M9008 1780 c-202 -36 -334 -153 -405 -357 -25 -71 -27 -91 -27 -223
0 -136 1 -150 30 -232 71 -198 210 -319 404 -349 238 -36 448 68 552 274 50
100 37 147 -43 147 -56 0 -66 -7 -101 -73 -45 -84 -114 -150 -183 -176 -70
-26 -193 -28 -262 -5 -131 45 -221 166 -239 321 l-7 53 447 0 c418 0 446 1
447 18 7 96 -20 241 -60 327 -54 116 -178 223 -302 259 -65 20 -189 28 -251
16z m247 -182 c91 -48 165 -145 190 -250 8 -35 15 -66 15 -70 0 -5 -164 -8
-365 -8 -418 0 -380 -11 -345 101 38 123 117 209 226 243 78 25 215 17 279
-16z"/>
<path d="M10830 1779 c-131 -21 -260 -116 -294 -216 -22 -63 -20 -158 3 -209
39 -85 119 -130 365 -204 293 -89 356 -137 327 -247 -6 -21 -25 -52 -43 -69
-54 -51 -88 -59 -244 -59 -136 0 -142 1 -199 30 -46 24 -63 39 -81 75 -13 25
-26 57 -29 72 -3 15 -12 34 -21 42 -20 21 -83 20 -113 0 -21 -15 -23 -22 -17
-67 12 -102 87 -206 183 -255 82 -43 152 -56 278 -56 101 1 131 5 191 26 167
59 254 171 254 330 0 106 -49 177 -163 234 -70 36 -130 56 -284 94 -156 39
-230 72 -256 117 -42 73 18 167 128 198 87 26 206 17 274 -21 50 -27 91 -75
91 -108 0 -52 99 -77 141 -35 17 17 20 28 14 57 -20 108 -80 182 -189 233 -95
44 -199 57 -316 38z"/>
<path d="M11935 1784 c-287 -44 -465 -268 -465 -584 0 -273 135 -483 360 -561
52 -18 88 -22 175 -23 172 0 272 39 383 149 69 69 110 136 127 207 13 53 -57
86 -128 59 -15 -6 -35 -29 -48 -57 -34 -67 -103 -141 -163 -172 -47 -25 -60
-27 -166 -27 -96 0 -122 3 -161 21 -139 65 -219 212 -219 404 0 192 80 339
219 404 67 31 245 31 312 0 63 -29 125 -88 161 -151 35 -62 51 -73 108 -73 88
0 99 32 49 132 -60 119 -175 213 -308 252 -57 17 -185 27 -236 20z"/>
<path d="M12690 1770 c-20 -20 -20 -33 -20 -570 0 -537 0 -550 20 -570 24 -24
86 -27 118 -4 l22 15 0 495 0 494 254 0 c291 0 286 -2 286 80 0 81 5 80 -352
80 -295 0 -309 -1 -328 -20z"/>
<path d="M13818 1780 c-268 -48 -421 -240 -435 -546 -16 -331 155 -572 437
-615 133 -20 285 10 381 77 122 84 227 264 190 323 -11 18 -93 26 -119 12 -11
-6 -35 -38 -53 -72 -39 -73 -95 -130 -157 -161 -40 -20 -62 -23 -157 -23 -96
0 -116 3 -160 24 -103 51 -176 156 -201 288 -6 34 -9 65 -6 68 3 3 205 5 449
5 l443 0 0 65 c0 263 -142 472 -367 540 -61 19 -184 26 -245 15z m219 -171
c33 -13 76 -40 103 -65 67 -63 96 -119 124 -246 l6 -28 -365 0 -365 0 0 25 c0
35 43 149 74 195 27 41 91 94 136 112 83 34 205 37 287 7z"/>
<path d="M14943 1779 c-190 -32 -330 -156 -400 -354 -25 -73 -27 -92 -28 -225
0 -136 2 -150 31 -230 55 -155 131 -245 259 -306 157 -75 361 -67 510 20 66
39 143 125 182 203 55 110 44 153 -38 153 -56 0 -66 -7 -101 -72 -41 -77 -106
-144 -166 -171 -66 -29 -203 -36 -274 -12 -134 44 -226 164 -244 322 l-7 53
447 0 446 0 0 69 c0 229 -104 413 -284 501 -112 55 -211 69 -333 49z m252
-181 c91 -48 165 -145 190 -250 8 -35 15 -66 15 -70 0 -5 -164 -8 -365 -8
-418 0 -380 -11 -345 101 41 133 131 222 255 253 11 3 61 4 110 2 74 -2 99 -7
140 -28z"/>
<path d="M15730 1770 c-20 -20 -20 -33 -20 -570 0 -537 0 -550 20 -570 24 -24
87 -27 116 -6 18 14 19 33 24 363 5 309 8 354 25 403 30 84 92 170 149 205 45
28 57 30 140 30 158 0 256 -55 309 -172 40 -89 47 -163 47 -495 0 -295 1 -309
20 -328 24 -24 87 -27 116 -6 18 14 19 29 18 358 -1 316 -2 349 -22 420 -30
109 -66 179 -124 243 -99 109 -280 166 -415 131 -134 -34 -229 -128 -250 -248
-6 -33 -9 -12 -13 95 -4 122 -7 140 -24 153 -29 21 -92 18 -116 -6z"/>
<path d="M9786 1754 c-14 -14 -16 -79 -16 -563 0 -518 1 -549 18 -564 25 -23
78 -21 102 3 20 20 20 33 20 564 0 608 4 576 -70 576 -22 0 -45 -7 -54 -16z"/>
</g>
</svg>
